<?xml version="1.0" encoding="utf-8"?>
<!-- Generator: Adobe Illustrator 25.4.1, SVG Export Plug-In . SVG Version: 6.00 Build 0)  -->
<svg version="1.1" id="Layer_1" xmlns="http://www.w3.org/2000/svg" xmlns:xlink="http://www.w3.org/1999/xlink" x="0px" y="0px"
	 viewBox="0 0 48 48" style="enable-background:new 0 0 48 48;" xml:space="preserve">
<style type="text/css">
	.st0{fill:#00A9CE;}
	.st1{fill:#FFFFFF;}
</style>
<g>
	<circle class="st0" cx="3.9" cy="4.4" r="4.1"/>
	<path class="st0" d="M0.9,18c0.1,0.8,0.8,1.4,1.6,1.4c0.1,0,0.2,0,0.3,0c3.4-0.6,7.8-1.7,11.3-5.2c3.2-3.2,4.4-7.2,5.1-10.6
		c0.2-0.9-0.4-1.8-1.3-2c-0.9-0.2-1.8,0.4-2,1.3c-0.6,3-1.6,6.3-4.2,8.9c-2.2,2.2-5.2,3.6-9.5,4.3C1.3,16.2,0.7,17.1,0.9,18z"/>
	<path class="st0" d="M28.2,3.2c0-0.9-0.7-1.7-1.6-1.7c0,0,0,0,0,0c-0.9,0-1.6,0.7-1.7,1.6c-0.1,6-2.4,11.5-6.4,15.5
		c-4.1,4.1-9.7,6.4-15.9,6.4c0,0-0.1,0-0.1,0c0,0,0,0,0,0c-0.9,0-1.7,0.7-1.7,1.7c0,0.9,0.7,1.7,1.7,1.7c0,0,0.1,0,0.1,0
		c7,0,13.5-2.6,18.3-7.3C25.5,16.3,28.1,10,28.2,3.2z"/>
	<circle class="st0" cx="43.6" cy="43.6" r="4.1"/>
	<path class="st0" d="M46.6,30.1c-0.2-0.9-1-1.5-1.9-1.4c-3.4,0.6-7.8,1.7-11.3,5.2c-3.2,3.2-4.4,7.2-5.1,10.6
		c-0.2,0.9,0.4,1.8,1.3,2c0.1,0,0.2,0,0.3,0c0.8,0,1.5-0.5,1.6-1.3c0.6-3,1.6-6.3,4.2-8.9c2.2-2.2,5.2-3.6,9.5-4.3
		C46.2,31.8,46.8,31,46.6,30.1z"/>
	<path class="st0" d="M44.8,23.1c0,0,0.1,0,0.1,0c0,0,0,0,0,0c0.9,0,1.7-0.7,1.7-1.7c0-0.9-0.7-1.7-1.7-1.7
		c-7.1,0-13.6,2.6-18.4,7.3C22,31.7,19.4,38,19.3,44.9c0,0.9,0.7,1.7,1.6,1.7c0,0,0,0,0,0c0.9,0,1.6-0.7,1.7-1.6
		c0.1-6,2.4-11.5,6.4-15.5C33.1,25.4,38.7,23.1,44.8,23.1z"/>
</g>
</svg>
