<?xml version="1.0" encoding="UTF-8" standalone="no"?><!-- Generated by Microsoft Visio, SVG Export bt_dtm_dut.svg Page-1 --><svg xmlns="http://www.w3.org/2000/svg" xmlns:ev="http://www.w3.org/2001/xml-events" xmlns:xlink="http://www.w3.org/1999/xlink" class="st14" color-interpolation-filters="sRGB" height="4.18413in" viewBox="0 0 273.838 301.258" width="3.80331in" xml:space="preserve">
	<style type="text/css">
	<![CDATA[
		.st1 {fill:none;stroke:#333f48;stroke-dasharray:7,5;stroke-width:1}
		.st2 {fill:#333f48;font-family:Calibri;font-size:1.16666em}
		.st3 {fill:#00a9ce;stroke:none;stroke-width:1}
		.st4 {fill:#ffffff;font-family:Calibri;font-size:1.16666em}
		.st5 {font-size:1em}
		.st6 {fill:#d9e1e2;stroke:none;stroke-width:1}
		.st7 {font-size:0.857157em}
		.st8 {stroke:#333f48;stroke-linecap:butt;stroke-width:1}
		.st9 {fill:#0077c8;stroke:none;stroke-width:1}
		.st10 {marker-end:url(#mrkr5-49);stroke:#333f48;stroke-linecap:butt;stroke-width:1}
		.st11 {fill:#333f48;fill-opacity:1;stroke:#333f48;stroke-opacity:1;stroke-width:0.28409090909091}
		.st12 {fill:none;stroke:none;stroke-width:1}
		.st13 {fill:#333f48;font-family:Calibri;font-size:1.00001em}
		.st14 {fill:none;fill-rule:evenodd;font-size:12px;overflow:visible;stroke-linecap:square;stroke-miterlimit:3}
	]]>
	</style>

	<defs id="Markers">
		<g id="lend5">
			<path d="M 2 1 L 0 0 L 1.98117 -0.993387 C 1.67173 -0.364515 1.67301 0.372641 1.98465 1.00043 " style="stroke:none"/>
		</g>
		<marker class="st11" id="mrkr5-49" markerUnits="strokeWidth" orient="auto" overflow="visible" refX="-6.16">
			<use transform="scale(-3.52,-3.52) " xlink:href="#lend5"/>
		</marker>
	</defs>
	<g>
		<title>Page-1</title>
		<g id="shape1196-1" transform="translate(1,-76.2663)">
			<title>Block1</title>
			<desc>nRF5</desc>
			<path class="st1" d="M0 301.26 L165 301.26 L165 131.33 L0 131.33 L0 301.26 Z"/>
			<text class="st2" x="4" y="147.93">nRF5</text>		</g>
		<g id="shape1197-4" transform="translate(14.8855,-163.992)">
			<title>Block2</title>
			<desc>Application main.c</desc>
			<rect class="st3" height="58.1102" width="138.114" x="0" y="243.147"/>
			<text class="st4" x="36.81" y="268">Application <tspan class="st5" dy="1.2em" x="50.1">main.c</tspan></text>		</g>
		<g id="shape1198-8" transform="translate(14.8855,-1)">
			<title>Rectangle.3</title>
			<desc>Lower tester</desc>
			<rect class="st6" height="48.189" width="257.953" x="0" y="253.069"/>
			<text class="st2" x="93" y="281.36">Lower tester</text>		</g>
		<g id="shape1199-11" transform="translate(14.8855,-252.069)">
			<title>Rectangle.4</title>
			<desc>Upper tester</desc>
			<rect class="st6" height="48.189" width="257.953" x="0" y="253.069"/>
			<text class="st2" x="92.79" y="281.36">Upper tester</text>		</g>
		<g id="shape1200-14" transform="translate(169.374,-47.7717)">
			<title>Rectangle.5</title>
			<desc>External tester (for example, Anritsu MT8852)</desc>
			<rect class="st6" height="207.132" width="103.465" x="0" y="94.126"/>
			<text class="st2" x="9.96" y="186.29">External tester <tspan class="st7" dy="1.25em" x="19.21">(for example, </tspan><tspan class="st7" dy="1.35em" x="10.74">Anritsu MT8852)</tspan></text>		</g>
		<g id="shape1201-19" transform="translate(80.0824,-88.874)">
			<title>Dynamic connector</title>
			<path class="st8" d="M0 301.26 L0 332.44 L19.84 332.44"/>
		</g>
		<g id="shape1202-22" transform="translate(-179.225,127.338) rotate(-67.8719)">
			<title>Sheet.1202</title>
			<path class="st8" d="M0 301.26 L7.74 301.26"/>
		</g>
		<g id="shape1203-25" transform="translate(376.801,121.759) rotate(68.1986)">
			<title>Sheet.1203</title>
			<path class="st8" d="M0 301.26 L7.63 301.26"/>
		</g>
		<g id="shape1204-28" transform="translate(401.12,234.509) rotate(90.1646)">
			<title>Sheet.1204</title>
			<path class="st8" d="M0 301.26 L9.92 301.26"/>
		</g>
		<g id="shape1205-31" transform="translate(-159.382,127.338) rotate(-67.8719)">
			<title>Sheet.1205</title>
			<path class="st8" d="M0 301.26 L7.74 301.26"/>
		</g>
		<g id="shape1206-34" transform="translate(396.643,121.759) rotate(68.1986)">
			<title>Sheet.1206</title>
			<path class="st8" d="M0 301.26 L7.63 301.26"/>
		</g>
		<g id="shape1207-37" transform="translate(420.962,232.645) rotate(89.81)">
			<title>Sheet.1207</title>
			<path class="st8" d="M0 301.26 L18.43 301.26"/>
		</g>
		<g id="shape1208-40" transform="translate(14.8855,-88.874)">
			<title>Block2.247</title>
			<desc>DTM library dtm.c</desc>
			<rect class="st9" height="69.73" width="138.114" x="0" y="231.528"/>
			<text class="st4" x="35.48" y="262.19">DTM library <tspan class="st5" dy="1.2em" x="52.72">dtm.c</tspan></text>		</g>
		<g id="shape1209-44" transform="translate(73.8576,-252.069)">
			<title>Dynamic connector.249</title>
			<path class="st10" d="M7.03 301.26 L7.12 325.25"/>
		</g>
		<g id="shape1211-50" transform="translate(83.0023,-227.265)">
			<title>Sheet.1211</title>
			<desc>2-wire UART</desc>
			<rect class="st12" height="14.1732" width="73.4131" x="0" y="287.084"/>
			<text class="st13" x="6.23" y="297.77">2-wire UART</text>		</g>
	</g>
</svg>